<svg width="99" height="65" viewBox="0 0 99 65" fill="none" xmlns="http://www.w3.org/2000/svg">
<g clip-path="url(#clip0_85_797)">
<path d="M21.2882 21.9472C23.5562 21.1498 26.0155 21.0705 28.3304 21.7201C30.1351 22.2266 31.7829 23.1567 33.1413 24.4232C33.725 24.9673 34.0168 25.2394 34.313 25.249C34.6093 25.2588 34.8879 25.0312 35.4452 24.5759L36.7304 23.5261C37.4361 22.9496 37.789 22.6613 37.8077 22.2371C37.8264 21.8129 37.524 21.518 36.919 20.9279C34.9119 18.9699 32.4383 17.5375 29.7184 16.7742C26.3872 15.8393 22.8483 15.9535 19.5845 17.1011C16.3205 18.2487 13.49 20.3741 11.4797 23.188C9.4693 26.0021 8.37724 29.3673 8.35307 32.8247C8.3289 36.282 9.37379 39.6622 11.3446 42.5041C13.3154 45.3457 16.116 47.5104 19.3635 48.7035C22.6111 49.8965 26.1481 50.0599 29.492 49.1716C32.2222 48.4462 34.7156 47.0484 36.7499 45.1187C37.363 44.5372 37.6695 44.2464 37.6568 43.822C37.6441 43.3976 37.2953 43.1045 36.5976 42.5181L35.3271 41.4503C34.7764 40.9874 34.5009 40.7559 34.2046 40.7615C33.9082 40.7671 33.6126 41.035 33.0215 41.571C31.6455 42.8184 29.9846 43.7255 28.173 44.2068C25.8494 44.8241 23.3913 44.7104 21.1348 43.8815C18.8782 43.0525 16.9336 41.5489 15.5657 39.5764C14.1978 37.6041 13.473 35.2587 13.4897 32.8607C13.5065 30.4625 14.264 28.1274 15.6594 26.1743C17.0548 24.2211 19.0203 22.7447 21.2882 21.9472Z" fill="white"/>
<path d="M49.3434 21.9472C51.6113 21.1498 54.0707 21.0705 56.3856 21.7201C58.1901 22.2266 59.8381 23.1567 61.1965 24.4232C61.7802 24.9673 62.072 25.2394 62.3682 25.249C62.6645 25.2588 62.9431 25.0312 63.5002 24.5759L64.7855 23.5261C65.4913 22.9496 65.8442 22.6613 65.8629 22.2371C65.8816 21.8129 65.5791 21.518 64.9742 20.9279C62.967 18.9699 60.4934 17.5375 57.7736 16.7742C54.4423 15.8393 50.9035 15.9535 47.6395 17.1011C44.3757 18.2487 41.5452 20.3741 39.5349 23.188C37.5244 26.0021 36.4324 29.3673 36.4082 32.8247C36.3841 36.282 37.4289 39.6622 39.3998 42.5041C41.3706 45.3457 44.1712 47.5104 47.4187 48.7035C50.6663 49.8965 54.2032 50.0599 57.547 49.1716C60.2774 48.4462 62.7708 47.0484 64.8051 45.1187C65.4182 44.5372 65.7247 44.2464 65.712 43.822C65.6992 43.3976 65.3504 43.1045 64.6528 42.5181L63.3823 41.4503C62.8316 40.9874 62.5561 40.7559 62.2598 40.7615C61.9634 40.7671 61.6678 41.035 61.0767 41.571C59.7007 42.8184 58.0398 43.7255 56.2282 44.2068C53.9044 44.8241 51.4465 44.7104 49.1899 43.8815C46.9334 43.0525 44.9887 41.5489 43.6208 39.5764C42.2529 37.6041 41.5282 35.2587 41.545 32.8607C41.5617 30.4625 42.3192 28.1274 43.7145 26.1743C45.11 24.2211 47.0755 22.7447 49.3434 21.9472Z" fill="white"/>
<path d="M2.03039 49.8742C1.28531 49.8742 0.912766 49.8742 0.681298 49.6427C0.449829 49.4112 0.449829 49.0387 0.449829 48.2936L0.44983 17.8668C0.44983 17.1217 0.449831 16.7491 0.681299 16.5177C0.912769 16.2861 1.28531 16.2861 2.03039 16.2861H4.00611C4.7512 16.2861 5.12373 16.2861 5.35521 16.5177C5.58667 16.7491 5.58667 17.1217 5.58667 17.8668V48.2936C5.58667 49.0387 5.58667 49.4112 5.35521 49.6427C5.12373 49.8742 4.7512 49.8742 4.00611 49.8742H2.03039Z" fill="white"/>
<path fill-rule="evenodd" clip-rule="evenodd" d="M65.9909 49.3942C66.225 49.7499 66.7672 49.7499 67.8514 49.7499H70.2361C70.7419 49.7499 70.9949 49.7499 71.1929 49.6192C71.3909 49.4885 71.4904 49.256 71.6892 48.7909L73.9114 43.595H90.7128L92.9349 48.7909C93.1338 49.2558 93.2334 49.4886 93.4314 49.6192C93.6294 49.7499 93.8824 49.7499 94.3882 49.7499H96.7729C97.8571 49.7499 98.3992 49.7499 98.6334 49.3942C98.8676 49.0385 98.6533 48.5406 98.2248 47.5446L85.6377 18.2894C85.4382 17.8257 85.3384 17.5939 85.1406 17.4637C84.9429 17.3335 84.6905 17.3335 84.1858 17.3335H80.4385C79.9338 17.3335 79.6814 17.3335 79.4835 17.4637C79.2858 17.5939 79.1861 17.8257 78.9866 18.2894L66.3995 47.5446C65.971 48.5406 65.7567 49.0385 65.9909 49.3942ZM88.4316 38.2606L82.6028 24.631C82.4785 24.3406 82.4164 24.1953 82.3122 24.1953C82.2079 24.1953 82.1458 24.3405 82.0215 24.6309L76.1927 38.2606H88.4316Z" fill="white"/>
<path d="M83.2043 7.12043C81.3207 5.42434 76.619 6.79755 73.5651 13.4337C71.7684 17.338 71.0478 20.0517 68.4989 23.3094C68.27 23.6062 68.3555 23.6833 68.628 23.4257C71.6139 20.5613 74.238 19.5618 77.9331 17.3668C84.2115 13.6373 85.088 8.81651 83.2043 7.12043Z" fill="#EF4135"/>
<path d="M65.6675 0.706015C70.5601 -0.266455 75.2271 12.9439 67.0343 22.7422C66.9828 22.8038 66.8915 22.7438 66.923 22.6682C67.5186 21.2399 68.4023 18.6239 66.7298 13.833C65.8033 11.179 64.2613 8.86213 63.888 5.95664C63.5771 3.5354 64.0181 1.03385 65.6675 0.706015Z" fill="#C41230"/>
<path d="M91.8585 24.2714C92.4872 19.3226 78.9838 15.5884 69.7812 24.445C69.7234 24.5006 69.7896 24.5876 69.8627 24.5509C71.2459 23.857 73.794 22.7929 78.6897 24.1272C81.4018 24.8663 83.8205 26.2431 86.7448 26.4127C89.1818 26.5541 91.6464 25.9396 91.8585 24.2714Z" fill="#F89728"/>
</g>
<defs>
<clipPath id="clip0_85_797">
<rect width="97.68" height="64.02" fill="white" transform="translate(0.780029 0.480225)"/>
</clipPath>
</defs>
</svg>
